<svg width="156" height="159" viewBox="0 0 156 159" fill="none" xmlns="http://www.w3.org/2000/svg">
<path d="M192.509 105.999C187.15 123.566 171.51 137.649 154.043 140.835C136.577 144.021 117.163 136.249 109.665 119.559C102.044 102.809 106.462 77.2009 92.5159 61.9255C78.5695 46.6501 46.3182 41.5845 35.8808 29.3805C25.3837 17.2991 36.4552 -2.04003 48.2225 -19.069C59.8671 -36.1577 72.2076 -50.9362 88.1759 -51.665C104.022 -52.4535 123.677 -39.2553 142.144 -40.1343C160.548 -41.1956 177.763 -56.334 184.46 -51.7126C191.219 -46.9089 187.401 -22.2226 198.418 -7.1582C209.435 7.90623 235.288 13.3489 236.04 20.8432C236.792 28.3374 212.44 37.5784 202.787 52.7537C193.011 67.8693 197.931 88.6143 192.509 105.999Z" fill="white" fill-opacity="0.05"/>
</svg>
