<svg width="447" height="462" viewBox="0 0 447 462" fill="none" xmlns="http://www.w3.org/2000/svg">
<path  d="M195.752 459.105C235.201 469.916 282.584 446.93 327.934 422.307C373.234 397.226 416.6 371.426 434.225 332.867C451.9 294.768 443.679 244.623 444.53 192.569C444.922 140.565 454.133 86.4465 433.497 50.1709C412.86 13.8953 362.428 -4.07921 317.487 0.781562C272.341 5.89642 232.892 33.5925 187.592 39.42C142.496 44.9934 91.4499 27.7812 72.7088 45.3504C53.9677 62.9196 67.2775 115.066 53.299 161.581C39.3204 208.095 -2.40502 249.028 0.108848 280.768C2.16413 312.558 47.7957 335.46 86.2668 369.342C125.197 403.175 156.507 448.039 195.752 459.105Z" stroke="none" fill="white" fill-opacity="0.05"/>
</svg>


